<svg width="191" height="53" viewBox="0 0 191 53" fill="none" xmlns="http://www.w3.org/2000/svg">
<path fill-rule="evenodd" clip-rule="evenodd" d="M175.5 26.5C175.5 32.8513 170.351 38 164 38C157.649 38 152.5 32.8513 152.5 26.5C152.5 20.1487 157.649 15 164 15C170.351 15 175.5 20.1487 175.5 26.5ZM190.5 26.5C190.5 41.1355 178.636 53 164 53C152.153 53 142.121 45.2255 138.729 34.5L7.5 34.5C3.35786 34.5 0 31.1421 0 27C0 22.8579 3.35786 19.5 7.5 19.5L138.434 19.5C141.504 8.26112 151.788 0 164 0C178.636 0 190.5 11.8645 190.5 26.5Z" fill="black"/>
</svg>
