<svg width="300" height="293" viewBox="0 0 300 293" fill="none" xmlns="http://www.w3.org/2000/svg">
<path fill-rule="evenodd" clip-rule="evenodd" d="M0 150.268C0 67.263 67.263 0.178891 150.089 0.178891L149.911 0C232.737 0 300 67.263 300 150.089C300 216.458 257.066 272.63 197.496 292.487C189.803 293.918 187.12 289.267 187.12 285.331C187.12 283.74 187.139 280.908 187.165 277.109C187.218 269.372 187.299 257.624 187.299 244.186C187.299 230.233 182.469 221.109 177.102 216.458C210.555 212.701 245.617 200 245.617 142.397C245.617 126.118 239.893 112.701 230.233 102.147C231.843 98.39 237.03 83.1843 228.801 62.4329C228.801 62.4329 216.279 58.3184 187.657 77.8175C175.671 74.5975 162.791 72.8086 150.089 72.8086C137.388 72.8086 124.508 74.4186 112.522 77.8175C83.7209 58.3184 71.1986 62.4329 71.1986 62.4329C63.1485 83.1843 68.1574 98.39 69.7674 102.147C60.2862 112.701 54.3828 125.939 54.3828 142.397C54.3828 200 89.4454 212.88 122.719 216.637C118.426 220.394 114.669 227.013 113.238 236.673C104.651 240.429 83.0054 247.048 69.5886 224.15C69.5886 224.15 61.5385 209.839 46.5116 208.766C46.5116 208.766 31.8426 208.587 45.4383 217.889C45.4383 217.889 55.2773 222.54 62.0751 239.893C62.0751 239.893 71.0197 266.726 112.701 257.603C112.701 265.763 112.777 273.62 112.83 279.093C112.858 282.019 112.88 284.264 112.88 285.51C112.88 289.445 110.197 294.097 102.683 292.665C42.9338 272.809 0 216.637 0 150.268ZM54.3932 216.1C55.4665 216.458 56.5399 216.279 56.8976 215.563H56.7188C57.2554 214.669 56.5399 213.774 55.4665 213.238C54.3932 212.88 53.3198 213.059 52.9621 213.774C52.6043 214.669 53.3198 215.563 54.3932 216.1ZM62.7909 222.363C62.0754 223.078 60.6442 222.721 59.7498 221.647C58.8553 220.574 58.4976 219.143 59.392 218.606C60.1076 217.891 61.5387 218.248 62.4332 219.322C63.3276 220.395 63.6854 221.826 62.7909 222.363ZM65.4904 229.696C66.3849 230.948 67.9949 231.664 68.8893 230.948C69.7838 230.412 69.7838 228.802 68.8893 227.37C67.816 226.118 66.3849 225.403 65.4904 226.118C64.596 226.834 64.596 228.444 65.4904 229.696ZM76.9378 239.355C76.0433 240.25 74.4333 240.071 73.0022 238.819C71.7499 237.567 71.3921 235.956 72.1077 235.062C73.0022 234.168 74.7911 234.346 76.0433 235.599C77.2955 236.851 77.8322 238.461 76.9378 239.355ZM84.2645 245.436C86.0534 245.972 87.6634 245.436 88.0212 244.183C88.379 243.11 87.1267 241.679 85.5167 241.142C83.7278 240.606 82.1178 241.142 81.76 242.395C81.4022 243.468 82.6544 244.899 84.2645 245.436ZM100.366 245.079C100.366 246.332 98.9346 247.405 97.1457 247.405C95.3568 247.405 93.9257 246.51 93.9257 245.258C93.9257 244.006 95.3568 242.933 97.1457 242.933C98.9346 242.933 100.366 243.827 100.366 245.079ZM108.948 245.974C110.736 245.616 111.989 244.364 111.81 243.111C111.631 241.859 110.021 241.143 108.232 241.501C106.443 241.859 105.191 243.111 105.37 244.364C105.549 245.616 107.159 246.331 108.948 245.974Z" fill="#FEFEFE"/>
</svg>
