<?xml version="1.0" standalone="no"?>
<!DOCTYPE svg PUBLIC "-//W3C//DTD SVG 20010904//EN"
 "http://www.w3.org/TR/2001/REC-SVG-20010904/DTD/svg10.dtd">
<svg version="1.0" xmlns="http://www.w3.org/2000/svg"
 width="320.000000pt" height="320.000000pt" viewBox="0 0 320.000000 320.000000"
 preserveAspectRatio="xMidYMid meet">
<metadata>
Created by potrace 1.11, written by Peter Selinger 2001-2013
</metadata>
<g transform="translate(0.000000,320.000000) scale(0.100000,-0.100000)"
fill="#000000" stroke="none">
<path d="M0 1600 l0 -1600 1600 0 1600 0 0 1600 0 1600 -1600 0 -1600 0 0
-1600z m2563 1103 c3 -5 -5 -8 -18 -8 -13 0 -21 3 -18 8 2 4 10 7 18 7 8 0 16
-3 18 -7z m-1235 -41 c4 -25 -18 -52 -44 -52 -14 0 -14 -2 -3 -16 8 -9 9 -18
3 -22 -15 -11 -34 -60 -34 -87 0 -14 -4 -25 -10 -25 -5 0 -10 6 -10 14 0 24
-21 30 -27 7 -6 -24 -23 -18 -23 8 0 10 -11 28 -25 41 -15 14 -25 35 -25 52 0
33 10 36 28 8 l13 -21 29 23 c20 16 29 32 29 54 1 40 8 45 56 42 33 -2 41 -7
43 -26z m1203 7 c14 -7 24 -7 32 0 8 6 18 6 27 1 12 -8 10 -10 -8 -10 -23 0
-23 0 -3 -21 22 -24 45 -16 38 12 -3 11 -1 19 4 19 13 0 11 -34 -2 -47 -8 -8
-8 -17 1 -32 14 -26 6 -41 -22 -41 -12 0 -32 -9 -44 -21 l-22 -21 -17 26 c-10
14 -21 24 -25 21 -4 -2 -15 1 -25 9 -14 10 -15 17 -6 34 6 11 8 28 5 36 -15
40 23 59 67 35z m-1391 -159 c21 -7 18 -8 -18 -9 -26 -1 -41 3 -37 9 7 11 19
11 55 0z m-682 -32 l-3 -33 -78 -3 c-46 -2 -75 -7 -72 -12 4 -6 -13 -10 -40
-10 -28 0 -44 4 -40 10 4 6 -22 10 -69 10 -78 0 -77 -1 -80 43 -1 16 57 23
237 25 l148 3 -3 -33z m942 23 c0 -13 -42 -22 -55 -11 -5 5 -28 10 -50 13 -25
2 -13 4 33 5 39 1 72 -2 72 -7z m-285 -25 c-11 -8 -24 -12 -29 -8 -5 3 -1 9
10 13 31 12 39 10 19 -5z m1795 -51 c0 -44 -4 -56 -20 -65 -28 -15 -60 4 -60
35 0 16 9 27 30 37 21 9 30 20 30 36 0 13 4 20 10 17 6 -3 10 -31 10 -60z
m-1570 45 c0 -5 -4 -10 -10 -10 -5 0 -10 5 -10 10 0 6 5 10 10 10 6 0 10 -4
10 -10z m1361 -40 c23 -13 26 -60 4 -60 -8 0 -15 9 -15 20 0 11 -5 20 -11 20
-6 0 -13 -9 -16 -20 -8 -30 -23 -24 -23 9 0 38 24 50 61 31z m97 -2 c35 -35
-7 -91 -48 -66 -24 15 -26 41 -4 62 19 19 36 20 52 4z m202 -13 c10 -12 9 -16
-4 -21 -9 -3 -24 -3 -33 0 -15 6 -15 4 2 -14 21 -23 12 -39 -13 -24 -22 14
-28 54 -10 65 20 13 44 11 58 -6z m-2765 -25 c4 -6 -5 -10 -19 -10 -16 0 -26
-6 -26 -15 0 -8 7 -15 15 -15 8 0 15 -5 15 -11 0 -6 -7 -9 -15 -5 -10 3 -15
-1 -15 -14 0 -13 9 -20 28 -23 26 -4 26 -4 -4 -6 -31 -1 -32 0 -36 47 -2 26 1
50 6 54 16 11 44 10 51 -2z m190 -4 c24 -18 13 -46 -19 -46 -19 0 -26 -6 -29
-27 -2 -16 -5 -2 -6 30 -1 49 2 57 17 57 10 0 27 -6 37 -14z m955 -16 c5 0 12
5 15 10 13 21 25 9 25 -24 0 -29 -8 -41 -44 -70 -40 -34 -75 -48 -61 -26 3 6
2 10 -4 10 -5 0 -13 -4 -16 -10 -13 -21 -25 -8 -25 28 0 33 6 42 48 74 34 27
48 33 50 23 2 -8 7 -15 12 -15z m-1240 -70 l25 -6 -27 -6 c-15 -3 -30 -3 -33
0 -3 3 -4 28 -3 56 l1 51 6 -45 c5 -37 10 -45 31 -50z m191 44 c12 -25 18 -48
15 -51 -3 -3 -13 13 -22 37 -12 29 -19 38 -25 28 -12 -18 -11 -30 1 -23 6 3
10 1 10 -5 0 -7 -6 -10 -14 -7 -9 4 -16 -3 -20 -16 -3 -12 -8 -18 -12 -15 -8
9 26 98 38 98 5 0 18 -21 29 -46z m1672 -6 c12 -98 9 -178 -8 -178 -11 0 -15
21 -17 108 l-3 107 -135 -4 c-74 -2 -140 -7 -146 -12 -6 -5 -14 -6 -18 -2 -4
4 -6 -42 -5 -102 2 -145 -16 -153 -26 -11 -4 58 -5 112 -2 120 5 12 29 16 109
18 57 2 135 4 174 6 l71 3 6 -53z m-137 15 c-11 -12 -56 -14 -56 -3 0 5 14 10
32 10 17 0 28 -3 24 -7z m73 -27 c-2 -2 -58 -6 -124 -9 -70 -3 -99 -2 -70 2
54 9 201 13 194 7z m905 -48 c-3 -5 -11 -8 -17 -8 -7 0 -6 4 3 11 12 8 9 10
-12 6 -21 -3 -25 -1 -20 12 10 28 26 31 39 8 6 -12 9 -25 7 -29z m-1307 -265
c-1 -59 -3 -13 -3 102 0 116 2 164 3 108 2 -56 2 -151 0 -210z m853 266 c12
-23 19 -47 16 -55 -7 -19 -105 -19 -112 0 -7 19 42 96 61 96 8 0 24 -18 35
-41z m387 19 c-3 -8 -6 -5 -6 6 -1 11 2 17 5 13 3 -3 4 -12 1 -19z m-839 -22
c3 -13 -13 -15 -131 -17 -96 -2 -114 2 -104 18 7 11 231 10 235 -1z m-1751
-31 c0 -8 -4 -12 -9 -9 -4 3 -8 9 -8 15 0 5 4 9 8 9 5 0 9 -7 9 -15z m73 11
c0 -3 -4 -8 -10 -11 -5 -3 -10 -1 -10 4 0 6 5 11 10 11 6 0 10 -2 10 -4z m108
-15 c3 -8 -1 -12 -9 -9 -7 2 -15 10 -17 17 -3 8 1 12 9 9 7 -2 15 -10 17 -17z
m-241 3 c-3 -3 -12 -4 -19 -1 -8 3 -5 6 6 6 11 1 17 -2 13 -5z m310 0 c-3 -3
-12 -4 -19 -1 -8 3 -5 6 6 6 11 1 17 -2 13 -5z m1491 -13 c12 -1 22 -5 22 -10
0 -5 -52 -12 -116 -16 -92 -6 -118 -5 -124 6 -5 7 -7 16 -5 19 3 4 92 4 223 1z
m298 -103 l6 -21 19 24 c14 18 19 20 19 8 0 -9 -8 -27 -19 -40 l-18 -23 -17
32 c-19 36 -20 42 -7 42 5 0 13 -10 17 -22z m86 -18 c-2 -17 -8 -28 -12 -23
-10 10 -1 65 9 58 4 -2 6 -18 3 -35z m71 14 c4 9 11 16 17 16 6 0 4 -12 -5
-30 -19 -37 -28 -38 -43 -5 -18 39 -14 53 7 26 15 -20 19 -21 24 -7z m92 16
c3 -5 -2 -10 -12 -10 -15 0 -16 -2 -3 -10 13 -8 13 -11 1 -19 -11 -7 -10 -10
5 -14 13 -3 11 -5 -8 -6 -24 -1 -28 3 -28 27 0 16 3 32 7 35 10 10 31 8 38 -3z
m393 -70 c20 0 22 -5 22 -47 0 -91 -2 -93 -88 -93 l-75 0 7 53 c3 28 6 63 6
76 0 23 2 24 53 17 28 -3 62 -6 75 -6z m-985 -130 c-1 -30 -2 -63 -2 -72 -1
-16 -12 -18 -76 -18 l-75 0 0 75 0 76 78 -3 77 -3 -2 -55z m-1088 38 c17 0 53
3 81 7 63 9 67 4 70 -87 2 -82 -10 -93 -86 -83 -27 4 -70 7 -96 7 -27 0 -56 4
-66 9 -12 6 -25 6 -37 -1 -32 -16 -243 -23 -253 -8 -4 7 -8 39 -8 70 0 48 4
59 22 72 26 18 74 21 83 6 4 -6 14 -9 23 -6 10 3 34 8 56 10 21 3 41 7 44 11
3 3 36 3 72 0 36 -4 79 -7 95 -7z m1708 -5 c-28 -5 -30 -19 -3 -26 11 -3 20
-12 20 -20 0 -21 -25 -38 -44 -31 -24 9 -20 23 5 17 16 -4 20 -2 17 8 -8 23
-39 23 -45 0 -5 -19 -15 -25 -35 -22 -5 0 -8 -6 -8 -14 0 -8 -4 -15 -10 -15
-5 0 -10 20 -10 45 0 40 2 45 23 45 13 0 28 -5 35 -12 9 -9 12 -7 12 10 0 18
5 22 33 21 23 -1 26 -3 10 -6z m77 -58 c0 -31 -4 -45 -13 -45 -9 0 -12 10 -10
33 9 71 23 78 23 12z m55 35 c3 -5 -2 -10 -11 -10 -16 0 -16 -1 2 -14 15 -11
16 -17 7 -27 -7 -7 -19 -9 -30 -4 -17 7 -17 8 1 14 18 7 18 8 2 14 -15 6 -16
10 -6 22 14 17 26 19 35 5z m-85 -40 c0 -5 -5 -10 -11 -10 -5 0 -7 5 -4 10 3
6 8 10 11 10 2 0 4 -4 4 -10z m-115 -150 c3 -5 32 -10 63 -10 72 0 85 -8 81
-51 -2 -21 4 -45 14 -59 15 -22 15 -26 2 -45 -9 -11 -22 -34 -30 -52 -22 -48
-48 -58 -96 -39 -30 12 -45 14 -60 5 -25 -13 -141 -7 -262 15 -95 16 -117 27
-117 58 0 24 58 146 74 156 6 3 38 7 71 8 33 1 79 5 103 9 27 4 48 3 56 -4 10
-8 17 -7 26 4 14 17 66 20 75 5z m-1965 -94 l0 -76 -74 0 -74 0 -4 68 c-3 37
-4 70 -2 73 2 3 37 7 79 8 l75 2 0 -75z m2568 22 l-3 -43 -82 -7 c-45 -4 -103
-3 -130 0 l-48 7 -3 43 -3 42 136 0 136 0 -3 -42z m-2311 -4 c4 -13 -43 -28
-57 -19 -6 4 -10 1 -10 -6 0 -7 -3 -10 -6 -6 -4 3 -13 -1 -22 -9 -14 -14 -16
-14 -25 1 -11 20 -12 19 43 38 50 17 71 18 77 1z m191 -9 c44 -30 68 -32 84
-5 19 29 58 27 58 -4 0 -18 -10 -29 -40 -45 l-40 -21 -36 25 c-20 14 -44 25
-53 25 -23 0 -41 19 -34 36 7 20 19 18 61 -11z m-144 -82 l17 -78 -28 -22
c-16 -13 -42 -23 -61 -23 -30 0 -34 4 -66 73 -18 39 -32 73 -31 75 4 5 129 50
141 51 6 1 19 -34 28 -76z m2131 -97 c39 -16 75 -68 75 -106 0 -39 -37 -90
-77 -107 -70 -29 -150 18 -159 94 -6 47 11 80 55 110 40 27 59 28 106 9z
m-1010 -241 c0 -36 -3 -40 -27 -43 -32 -4 -38 -22 -7 -22 18 0 19 -2 5 -15 -8
-8 -22 -15 -30 -15 -12 0 -16 -11 -16 -50 0 -41 3 -50 18 -50 10 0 22 -4 28
-9 5 -5 25 -11 44 -14 27 -3 23 -4 -17 -5 -80 -3 -83 0 -83 78 0 65 1 68 23
64 12 -2 16 -2 10 2 -7 3 -13 12 -13 20 0 8 -4 14 -10 14 -11 0 -14 73 -3 84
4 4 23 6 43 4 34 -3 35 -4 35 -43z m-1586 -11 c51 -43 51 -115 0 -163 -30 -28
-39 -26 -39 8 0 18 8 34 21 43 19 12 21 20 15 59 l-7 44 -64 0 -64 0 -7 -39
c-6 -35 -3 -43 21 -63 15 -13 24 -27 21 -30 -3 -4 -12 -1 -18 5 -17 17 -33 15
-18 -3 7 -8 19 -15 26 -15 8 0 14 -7 14 -15 0 -19 -10 -19 -36 3 -83 67 -42
191 63 192 30 0 50 -7 72 -26z m1629 -61 c-10 -2 -26 -2 -35 0 -10 3 -2 5 17
5 19 0 27 -2 18 -5z m59 1 c-3 -3 -12 -4 -19 -1 -8 3 -5 6 6 6 11 1 17 -2 13
-5z m73 -11 c0 -15 -2 -15 -9 -4 -5 8 -16 11 -25 8 -8 -3 -18 -2 -21 3 -4 6 7
10 24 10 23 0 31 -5 31 -17z m-98 -52 c3 -34 0 -40 -19 -44 -41 -8 -57 32 -25
64 27 28 40 22 44 -20z m-77 9 c0 -8 -11 -20 -25 -27 -14 -7 -19 -13 -12 -13
7 0 10 -5 7 -11 -13 -20 -28 -2 -29 34 -1 36 0 38 29 35 18 -2 30 -9 30 -18z
m172 -2 c-3 -8 -6 -5 -6 6 -1 11 2 17 5 13 3 -3 4 -12 1 -19z m517 -40 c20
-29 20 -34 -4 -58 -14 -14 -33 -20 -65 -20 -32 0 -51 6 -65 20 -24 24 -24 29
-4 58 12 18 25 22 69 22 44 0 57 -4 69 -22z m-514 -33 c0 -11 -11 -15 -47 -13
l-48 1 43 4 c23 2 42 8 42 14 0 5 2 9 5 9 3 0 5 -7 5 -15z m470 -92 c0 -22 -2
-25 -10 -13 -8 13 -10 12 -10 -2 0 -22 -26 -24 -34 -3 -3 8 -11 15 -18 15 -10
0 -10 -2 1 -9 8 -5 9 -11 3 -15 -6 -3 -14 -2 -17 4 -5 8 -11 8 -20 0 -9 -7
-16 -6 -26 6 -10 13 -10 17 1 24 9 5 19 5 26 -1 8 -6 14 -6 18 0 8 12 46 2 46
-12 0 -6 8 -1 18 11 22 28 22 27 22 -5z m40 -3 c24 16 40 11 40 -10 0 -11 -4
-20 -10 -20 -5 0 -10 5 -10 11 0 8 -4 8 -15 -1 -17 -14 -35 -5 -35 18 0 12 3
13 8 5 5 -8 13 -9 22 -3z m-1596 -52 c3 -13 6 -43 6 -68 0 -65 -9 -90 -32 -90
-29 0 -88 29 -121 59 l-27 25 27 28 c15 15 33 28 40 28 7 0 13 4 13 9 0 10 45
29 71 30 9 1 19 -9 23 -21z m192 -34 c-3 -8 -1 -14 4 -14 6 0 10 5 10 10 0 6
7 10 15 10 8 0 15 -4 15 -10 0 -5 9 -10 19 -10 12 0 23 -9 27 -22 l7 -23 8 23
c5 12 13 22 19 22 13 0 13 3 -5 -58 -16 -51 -35 -70 -35 -33 0 31 -21 81 -32
75 -5 -4 -7 -20 -4 -36 5 -24 3 -29 -12 -26 -9 2 -20 16 -23 33 l-7 30 -1 -32
c-1 -28 -5 -33 -26 -33 -21 0 -25 5 -25 31 0 17 -4 28 -10 24 -5 -3 -10 -17
-10 -30 0 -21 -4 -23 -47 -21 l-48 1 -3 39 c-3 28 0 37 10 34 7 -3 14 -10 14
-16 1 -7 2 -19 3 -27 2 -28 21 -15 21 14 0 29 1 30 50 28 46 -2 50 0 50 21 0
14 4 21 11 17 6 -4 8 -13 5 -21z m1339 -208 c32 -14 65 -59 65 -88 -1 -7 -7 1
-14 18 -17 40 -52 64 -90 64 -42 0 -105 -31 -106 -52 0 -12 -8 -18 -25 -18
-14 0 -25 5 -25 12 0 6 -2 9 -5 6 -3 -3 -1 -17 4 -32 6 -15 7 -26 1 -26 -4 0
-11 8 -13 18 -3 9 -5 -9 -6 -40 -1 -67 0 -73 16 -73 6 0 15 -4 19 -8 4 -4 -2
-7 -13 -7 -27 0 -29 -11 -32 -155 -4 -191 -11 -147 -11 69 0 214 12 282 53
311 28 19 136 20 182 1z m-18 -22 c-3 -3 -12 -4 -19 -1 -8 3 -5 6 6 6 11 1 17
-2 13 -5z m-49 -58 c26 -28 28 -33 12 -29 -20 5 -50 39 -50 55 0 13 4 10 38
-26z m-783 -116 c-3 -5 -11 -10 -16 -10 -6 0 -7 5 -4 10 3 6 11 10 16 10 6 0
7 -4 4 -10z m435 -201 c0 -5 -4 -8 -9 -5 -5 3 -14 -1 -21 -9 -7 -8 -17 -15
-23 -15 -5 0 -2 9 8 20 19 21 45 27 45 9z m37 5 c-3 -3 -12 -4 -19 -1 -8 3 -5
6 6 6 11 1 17 -2 13 -5z"/>
<path d="M2472 2653 c2 -10 10 -18 18 -18 8 0 16 8 18 18 2 12 -3 17 -18 17
-15 0 -20 -5 -18 -17z"/>
<path d="M2523 2643 c-30 -11 -11 -52 30 -66 10 -4 16 -3 13 1 -2 4 -1 14 4
22 18 29 -13 57 -47 43z m37 -28 c0 -8 -7 -15 -15 -15 -8 0 -15 7 -15 15 0 8
7 15 15 15 8 0 15 -7 15 -15z"/>
<path d="M2477 2602 c-22 -24 -21 -32 3 -32 15 0 19 6 18 25 -3 30 -1 29 -21
7z"/>
<path d="M2583 2585 c-7 -20 2 -29 21 -22 9 4 13 13 10 22 -8 19 -23 19 -31 0z"/>
<path d="M2527 2564 c-14 -14 -7 -35 11 -32 9 2 17 10 17 17 0 16 -18 25 -28
15z"/>
<path d="M165 2470 c4 -6 11 -8 16 -5 14 9 11 15 -7 15 -8 0 -12 -5 -9 -10z"/>
<path d="M235 2470 c3 -5 8 -10 11 -10 2 0 4 5 4 10 0 6 -5 10 -11 10 -5 0 -7
-4 -4 -10z"/>
<path d="M2860 2395 c0 -8 5 -15 10 -15 6 0 10 7 10 15 0 8 -4 15 -10 15 -5 0
-10 -7 -10 -15z"/>
<path d="M380 2365 c0 -11 7 -15 23 -13 12 2 22 8 22 13 0 6 -10 11 -22 13
-16 2 -23 -2 -23 -13z"/>
<path d="M1317 2346 c-28 -23 -38 -39 -35 -54 3 -22 3 -22 41 4 28 21 37 34
37 56 0 15 -1 28 -2 28 -2 -1 -20 -16 -41 -34z"/>
<path d="M2330 2270 c-14 -26 -5 -40 26 -40 24 0 30 13 18 44 -9 22 -31 20
-44 -4z"/>
<path d="M2777 2033 c-4 -3 -7 -19 -7 -34 l0 -28 27 25 c23 21 25 27 13 34
-18 12 -25 12 -33 3z m23 -13 c0 -5 -5 -10 -11 -10 -5 0 -7 5 -4 10 3 6 8 10
11 10 2 0 4 -4 4 -10z"/>
<path d="M2826 2012 c-3 -6 -1 -14 5 -18 8 -4 7 -9 -2 -15 -11 -7 -10 -9 4 -9
18 0 22 17 8 39 -5 8 -11 9 -15 3z"/>
<path d="M1768 1937 c-3 -17 0 -23 14 -23 19 0 21 5 12 30 -9 23 -21 20 -26
-7z"/>
<path d="M1827 1933 c-13 -13 -7 -21 13 -16 11 3 17 9 14 14 -6 11 -18 12 -27
2z"/>
<path d="M595 1961 c-22 -4 -51 -13 -64 -20 -21 -11 -25 -11 -33 3 -11 19 -51
21 -66 4 -10 -13 -15 -51 -13 -95 1 -17 7 -23 24 -22 15 1 17 3 5 6 -20 5 -22
87 -2 104 22 18 47 2 41 -26 -4 -24 -3 -24 13 -10 26 24 50 19 50 -10 0 -14 5
-25 10 -25 12 0 12 -2 1 37 -7 25 -6 32 7 35 33 8 53 -3 50 -25 -2 -14 2 -22
12 -22 8 0 16 10 18 23 2 12 -2 22 -8 22 -6 0 -8 5 -5 10 12 20 34 9 51 -25 9
-19 21 -35 28 -35 6 0 2 -7 -9 -16 -17 -13 -20 -13 -25 1 -5 13 -9 13 -28 -6
-24 -22 -23 -40 1 -21 9 8 24 9 43 3 29 -8 29 -8 32 38 2 33 0 42 -7 31 -8
-11 -13 -12 -22 -3 -6 6 -8 16 -5 22 10 15 83 14 88 -1 4 -10 10 -10 29 -2 23
11 21 12 -21 17 -91 12 -156 15 -195 8z"/>
<path d="M887 1963 c18 -3 21 -10 18 -35 -2 -16 0 -40 5 -53 6 -15 4 -27 -3
-34 -9 -9 -8 -11 4 -6 11 4 15 20 13 68 -1 61 -2 62 -30 64 -19 1 -22 0 -7 -4z"/>
<path d="M865 1931 c-3 -5 -1 -12 5 -16 5 -3 10 1 10 9 0 18 -6 21 -15 7z"/>
<path d="M450 1915 c0 -8 4 -15 10 -15 5 0 7 7 4 15 -4 8 -8 15 -10 15 -2 0
-4 -7 -4 -15z"/>
<path d="M580 1920 c0 -5 5 -10 10 -10 6 0 10 5 10 10 0 6 -4 10 -10 10 -5 0
-10 -4 -10 -10z"/>
<path d="M753 1893 c3 -24 1 -43 -5 -45 -5 -2 16 -5 49 -6 32 -1 67 -5 78 -8
16 -4 17 -3 5 5 -8 6 -34 11 -57 11 -24 0 -44 3 -44 8 -1 4 -3 17 -4 30 -1 13
-8 29 -15 35 -10 10 -11 4 -7 -30z"/>
<path d="M831 1914 c0 -11 3 -14 6 -6 3 7 2 16 -1 19 -3 4 -6 -2 -5 -13z"/>
<path d="M790 1891 c0 -12 6 -21 16 -21 9 0 14 7 12 17 -5 25 -28 28 -28 4z"/>
<path d="M512 1879 c1 -13 8 -23 13 -21 15 3 12 35 -3 40 -9 3 -13 -3 -10 -19z"/>
<path d="M870 1881 c0 -5 5 -13 10 -16 6 -3 10 -2 10 4 0 5 -4 13 -10 16 -5 3
-10 2 -10 -4z"/>
<path d="M455 1870 c4 -6 11 -8 16 -5 14 9 11 15 -7 15 -8 0 -12 -5 -9 -10z"/>
<path d="M475 1851 c-3 -5 4 -12 15 -16 27 -9 134 5 123 16 -4 4 -28 3 -52 -3
-32 -8 -48 -8 -62 0 -10 7 -20 8 -24 3z"/>
<path d="M2410 1925 c0 -9 5 -15 11 -13 6 2 11 8 11 13 0 5 -5 11 -11 13 -6 2
-11 -4 -11 -13z"/>
<path d="M2370 1739 c-10 -19 -13 -19 -34 -6 -24 16 -98 9 -119 -12 -13 -13
-13 -13 53 -1 30 6 58 6 64 1 6 -4 23 -11 39 -15 19 -5 27 -13 27 -29 0 -18 2
-19 10 -7 6 10 10 11 10 3 0 -7 3 -13 8 -13 4 0 7 11 7 25 0 27 -10 33 -18 13
-3 -7 -6 -3 -6 10 -1 12 -6 22 -12 22 -5 0 -7 5 -4 11 5 7 13 5 24 -5 21 -19
58 -25 92 -16 14 4 33 3 42 -2 11 -6 17 -5 17 1 0 15 -45 24 -83 17 -22 -4
-40 -1 -52 9 -28 20 -52 18 -65 -6z"/>
<path d="M2100 1700 c-38 -54 -63 -120 -50 -135 9 -11 105 -28 165 -30 6 0 16
-6 23 -12 7 -7 19 -13 25 -12 9 0 8 2 0 6 -7 2 -13 12 -13 21 0 15 2 15 10 2
8 -13 10 -13 10 2 0 15 4 16 25 8 24 -9 25 -8 25 25 0 39 -16 47 -29 13 -7
-20 -8 -20 -15 -3 -4 11 -1 22 6 28 9 6 8 7 -5 3 -10 -3 -21 -6 -23 -6 -2 0
-4 -12 -4 -26 0 -14 -4 -23 -10 -19 -5 3 -10 1 -10 -4 0 -22 -165 -8 -174 14
-2 7 10 41 28 76 31 62 34 64 77 70 l44 6 -42 1 c-36 2 -45 -2 -63 -28z"/>
<path d="M2303 1702 c-6 -25 -23 -30 -23 -7 0 8 -4 15 -10 15 -5 0 -9 -17 -9
-37 1 -21 3 -30 6 -20 4 14 8 16 19 6 11 -9 14 -9 14 1 0 10 3 10 15 0 13 -11
14 -8 9 21 -9 44 -13 48 -21 21z"/>
<path d="M2111 1678 c-22 -36 -17 -45 34 -48 49 -3 54 -1 70 30 19 36 19 40
-1 40 -8 0 -13 -3 -11 -7 3 -5 1 -18 -4 -30 -8 -23 -32 -29 -63 -17 -25 10
-19 27 8 20 30 -7 58 20 35 35 -26 16 -47 9 -68 -23z"/>
<path d="M2463 1703 c-16 -6 -17 -39 -2 -49 6 -3 16 -1 22 6 9 9 9 11 -2 8 -7
-2 -16 3 -18 10 -3 8 1 10 11 6 9 -3 16 -1 16 4 0 14 -12 20 -27 15z"/>
<path d="M2503 1697 c4 -10 7 -28 7 -40 0 -29 17 -10 24 28 4 17 3 24 0 17 -5
-10 -9 -10 -22 0 -13 11 -15 10 -9 -5z"/>
<path d="M2345 1691 c-3 -6 0 -9 7 -6 9 4 14 -3 15 -17 2 -16 0 -19 -6 -9 -6
8 -11 9 -15 3 -9 -15 13 -27 26 -14 12 12 7 44 -9 49 -6 2 -14 -1 -18 -6z"/>
<path d="M2424 1625 c22 -17 62 -20 70 -6 7 10 -27 21 -64 21 -24 -1 -24 -1
-6 -15z"/>
<path d="M2330 1615 c13 -16 50 -21 50 -6 0 10 -24 21 -47 21 -13 0 -13 -3 -3
-15z"/>
<path d="M2392 1590 c-1 -33 1 -41 8 -30 9 13 11 13 19 1 7 -10 9 -7 8 11 -1
15 -7 24 -14 21 -6 -3 -13 6 -16 19 -2 13 -5 3 -5 -22z"/>
<path d="M2521 1593 c-6 -10 -11 -12 -11 -5 0 6 -5 12 -10 12 -7 0 -7 -7 0
-21 7 -11 9 -27 6 -35 -12 -31 6 -12 20 22 16 39 13 58 -5 27z"/>
<path d="M2443 1584 c-7 -19 18 -46 34 -36 16 10 5 52 -13 52 -8 0 -17 -7 -21
-16z"/>
<path d="M2349 1582 c9 -7 10 -12 2 -16 -18 -12 -13 -26 10 -26 28 0 23 43 -6
48 -15 2 -17 1 -6 -6z"/>
<path d="M2450 1525 c46 -18 74 -17 35 0 -16 8 -39 14 -50 14 -13 0 -8 -5 15
-14z"/>
<path d="M359 1698 c-5 -16 -3 -61 3 -64 4 -3 8 11 8 30 0 20 -2 36 -5 36 -3
0 -5 -1 -6 -2z"/>
<path d="M383 1675 c0 -8 4 -15 9 -15 4 0 8 7 8 15 0 8 -4 15 -8 15 -5 0 -9
-7 -9 -15z"/>
<path d="M417 1673 c-4 -3 -7 -16 -6 -27 0 -19 1 -19 10 3 10 24 8 36 -4 24z"/>
<path d="M2797 1714 c-4 -4 -7 -18 -7 -31 0 -30 27 -30 33 0 l4 22 2 -22 c0
-13 6 -23 12 -23 6 0 9 12 7 28 -3 26 -34 43 -51 26z"/>
<path d="M2866 1703 c-8 -25 -1 -56 12 -61 7 -2 12 1 12 7 0 6 7 11 15 11 10
0 15 10 15 30 0 25 -4 30 -24 30 -15 0 -27 -7 -30 -17z m44 -12 c0 -6 -4 -13
-10 -16 -5 -3 -10 1 -10 9 0 9 5 16 10 16 6 0 10 -4 10 -9z"/>
<path d="M2940 1689 c0 -20 4 -29 13 -26 6 2 11 12 11 21 -2 24 14 19 19 -6
l4 -23 2 23 c0 12 6 22 11 22 6 0 10 -10 10 -22 1 -21 2 -21 11 -5 18 30 3 47
-41 47 -38 0 -40 -1 -40 -31z"/>
<path d="M678 1608 c-29 -10 -34 -23 -19 -47 6 -9 18 -11 35 -7 37 9 40 9 44
-3 5 -16 -41 -31 -50 -17 -5 7 -8 5 -8 -6 0 -21 31 -24 58 -7 13 8 17 20 14
36 -4 22 -8 24 -43 18 -47 -8 -53 8 -9 24 30 10 40 22 18 20 -7 0 -25 -5 -40
-11z"/>
<path d="M2794 1456 c-36 -36 -42 -67 -23 -110 15 -33 71 -59 109 -51 39 9 80
58 80 97 0 42 -57 98 -100 98 -23 0 -41 -10 -66 -34z m123 -22 c14 -22 14 -26
-1 -48 -19 -30 -49 -40 -76 -26 -25 13 -36 55 -20 75 7 8 9 15 4 16 -5 1 2 4
16 8 35 10 59 2 77 -25z"/>
<path d="M2840 1435 c-19 -23 -4 -65 24 -65 13 0 29 7 36 15 9 10 9 15 1 15
-6 0 -11 5 -11 11 0 5 5 7 10 4 14 -9 13 8 -2 23 -16 16 -43 15 -58 -3z m35
-35 c-5 -8 -11 -8 -17 -2 -6 6 -7 16 -3 22 5 8 11 8 17 2 6 -6 7 -16 3 -22z"/>
<path d="M1925 1111 c-3 -5 -1 -12 5 -16 12 -7 30 2 30 16 0 12 -27 12 -35 0z"/>
<path d="M1850 1130 c0 -5 7 -10 15 -10 8 0 15 5 15 10 0 6 -7 10 -15 10 -8 0
-15 -4 -15 -10z"/>
<path d="M2477 1074 c-16 -17 -4 -24 39 -24 32 0 44 4 42 13 -5 13 -69 22 -81
11z"/>
<path d="M914 893 c-12 -2 -30 -13 -40 -24 -17 -18 -16 -19 13 -19 22 0 33 6
41 25 6 14 11 24 9 24 -1 -1 -12 -4 -23 -6z"/>
<path d="M946 864 c-9 -24 -7 -39 9 -60 13 -18 14 -15 15 29 0 46 -12 62 -24
31z"/>
<path d="M860 821 c0 -13 49 -43 66 -39 13 3 12 6 -1 26 -16 21 -65 32 -65 13z"/>
<path d="M1082 820 c0 -14 2 -19 5 -12 2 6 2 18 0 25 -3 6 -5 1 -5 -13z"/>
<path d="M2378 658 c7 -7 16 -7 28 0 14 8 13 10 -10 10 -18 0 -24 -4 -18 -10z"/>
</g>
</svg>
