<svg xmlns="http://www.w3.org/2000/svg" width="1920" height="1968.449" viewBox="0 0 1920 1968.449"><path d="M1037.034,5233.449c-21.176,0-31.927-.88-32.033-.89V3265H2925V5160.454c-.092-.048-10.088-5.219-32.437-12.948-13.04-4.51-27.634-8.976-43.374-13.272-19.679-5.371-41.208-10.49-63.989-15.214-58-12.029-124.406-21.613-197.362-28.487-43.316-4.081-89.457-7.239-137.142-9.388-52.458-2.363-108.072-3.561-165.3-3.561-111.371,0-248.014,11.374-417.738,34.771-65.963,9.093-138.371,20.192-221.362,33.931-72.975,12.081-143.837,24.474-212.366,36.46l-.151.026c-79.819,13.961-155.211,27.148-221.765,37.666-37.345,4.865-73.15,8.426-106.42,10.584C1080.771,5232.632,1057.7,5233.449,1037.034,5233.449Z" transform="translate(-1005 -3265)" fill="#f7f7f7"/></svg>